# xmcd
#
# Track frame offsets:
#	150
#	20145
#	37590
#	56910
#	74120
#	92435
#	107350
#	122520
#	143105
#	162512
#	185735
#	200455
#	213762
#	226690
#	249522
#	266300
#	284112
#	302935
#
# Disc length: 4278 seconds
#
# Revision: 0
# Processed by: cddbd v1.5.2PL0 Copyright (c) Steve Scherf et al.
# Submitted via: EasyCDDAExtractor 11.5.3.1
#
DISCID=0410b412
DTITLE=Toto Cutugno - Il mondo di
DYEAR=1996
DGENRE=Pop
TTITLE0=Voglio andare a vivere in campgna
TTITLE1=L'italiano
TTITLE2=La mia musica
TTITLE3=Serenata
TTITLE4=Solo noi
TTITLE5=Maledetto sogno
TTITLE6=E io ti amavo
TTITLE7=Sinfonia
TTITLE8=Da poco tempo che
TTITLE9=Voglio una donna
TTITLE10=Flash
TTITLE11=Donna donna mia
TTITLE12='na parola
TTITLE13=Mi dici che stai bene con me
TTITLE14=Voglio l'anima
TTITLE15=Innamorati
TTITLE16=Amanti
TTITLE17=Soli
EXTD=YEAR: 1996\n
EXTT0=
EXTT1=
EXTT2=
EXTT3=
EXTT4=
EXTT5=
EXTT6=
EXTT7=
EXTT8=
EXTT9=
EXTT10=
EXTT11=
EXTT12=
EXTT13=
EXTT14=
EXTT15=
EXTT16=
EXTT17=
PLAYORDER=
